# xmcd CD database file
#
# Track frame offsets:
#	150
#	21407
#	63485
#	88280
#	112777
#	143380
#	172797
#	202775
#	228945
#	251185
#	278765
#	302222
#
# Disc length: 4318 seconds
#
# Revision: 0
# Processed by: cddbd v1.5.1PL0 Copyright (c) Steve Scherf et al.
# Submitted via: CDex 1.51
#
DISCID=9910dc0c
DTITLE=Mal Waldron, Richie Beirach. Kazuo Yasiro, Eiji Kitamura - Digital Jazz Standards Box 50:3
DYEAR=1986
DGENRE=Jazz
TTITLE0=MY FOOLISH HEART
TTITLE1=ALONE TOGETHER
TTITLE2=MOONLIGHT BECOMES YOU
TTITLE3=OH, LADY BE GOOD
TTITLE4=LESTER LEAPS IN
TTITLE5=LOVE LETTERS
TTITLE6=HONEYSUCKLES ROSE
TTITLE7=IT NEVER ENTERED MY MIND
TTITLE8=CHINA BOY
TTITLE9=LOVER MAN(Oh, Where Can You Be?)
TTITLE10=EVERY TIME WE SAY GOODBYE
TTITLE11=YESTERDAYS
EXTD=YEAR: 1986
EXTT0=
EXTT1=
EXTT2=
EXTT3=
EXTT4=
EXTT5=
EXTT6=
EXTT7=
EXTT8=
EXTT9=
EXTT10=
EXTT11=
PLAYORDER=
